<svg width="264" height="36" xmlns="http://www.w3.org/2000/svg"><g fill-rule="nonzero" fill="none"><path fill="#000" d="M.4 1.2h3.3v27.6H.4zM20 10.7l-2.1-4h-.2l.4 4v18.1H15V.8h1.7l13.2 18.4 2 3.8h.2l-.4-3.8v-18h3.1v28h-1.7zM62.4 4.1h-8.6v24.7h-3.3V4.1h-8.6V1.2h20.5zM70.4 1.2h15v2.9H73.7v9h10.8V16H73.7v9.8h12v2.9H70.5zM95.4 1.4c1-.2 2.1-.3 3.5-.4 1.3-.1 2.5-.2 3.6-.2 1.2 0 2.3.1 3.5.4 1 .2 2 .7 2.9 1.3.8.6 1.5 1.4 2 2.4 1.3 2.9.9 6.3-1 8.8-1.2 1.3-2.8 2.3-4.5 2.7l1.9 1.5 6.9 10.9h-3.8l-7.6-11.9-3.9-.6v12.5h-3.3l-.2-27.4zm7.1 2.3h-2.2l-1 .1c-.2 0-.5.1-.7.1v10.2h3.1c1.6.1 3.2-.4 4.5-1.3 1.2-1 1.9-2.6 1.8-4.2 0-1.3-.5-2.6-1.5-3.5-1.1-1-2.5-1.5-4-1.4zM128.1 20.1l1 4.2 1-4.3 6.7-18.9h3.3l-10.5 28h-1.5l-10.6-28h3.6zM148 1.2h3.3v27.6H148zM162.7 1.2h15v2.9H166v9h10.8V16H166v9.8h11.9v2.9h-15.2zM193.2 19.6l.6 4.6.7-4.7 5.7-18.4h1.6l5.7 18.5.7 4.6.7-4.7 4.7-18.4h3.2l-7.7 28h-1.8l-5.6-18.5-.7-4.2h-.2l-.7 4.2-5.6 18.5h-1.8l-7.9-28h3.5z"/><path d="M225.1 1.2h12.1v1.5c-.5.3-.9.5-1.4.7-.5.2-1 .3-1.6.4V24c.1 1.8-.3 3.6-1 5.3-.5 1.2-1.3 2.3-2.3 3.3-.8.7-1.7 1.3-2.7 1.8-.7.3-1.5.6-2.2.8l-.8-1c.4-.4.8-.8 1.1-1.2.4-.6.8-1.2 1-1.9.3-.9.5-1.8.7-2.8.2-1.3.3-2.7.3-4V3.9c-.6-.1-1.2-.3-1.7-.5s-1-.4-1.5-.7V1.2zM248.5 25.5c.4.3.8.6 1.2.8.7.3 1.4.4 2.1.4 1.3 0 2.6-.3 3.6-1.1 1-.7 1.5-1.9 1.5-3.1 0-.9-.3-1.8-.9-2.4-.7-.7-1.5-1.3-2.3-1.8-.9-.6-1.9-1.1-3-1.6s-2.1-1.2-3-1.9c-.9-.7-1.7-1.6-2.3-2.6-.7-1.1-1-2.5-.9-3.8 0-1.2.2-2.3.7-3.3.5-.9 1.2-1.7 2-2.3.9-.6 1.9-1.1 2.9-1.4 1.2-.3 2.4-.5 3.7-.5 1.5 0 3 .1 4.5.3 1.3.2 2.5.5 3.7 1 0 .5 0 1.1-.1 1.8s-.2 1.4-.3 2c-.1.6-.2 1.3-.3 1.9-.1.6-.2 1.1-.3 1.5h-1.6L257.6 4c-.4-.2-.9-.3-1.4-.4-.6-.1-1.3-.2-1.9-.2-1 0-2 .3-2.8.9-.8.6-1.2 1.5-1.2 2.5 0 .9.3 1.8 1 2.5s1.5 1.4 2.4 1.9c.9.6 2 1.2 3.1 1.7 1.1.6 2.1 1.2 3.1 2 .9.7 1.7 1.6 2.4 2.6.7 1.1 1 2.4 1 3.7.1 2.3-.9 4.6-2.7 6.1-1.8 1.4-4.4 2.2-7.8 2.2-.8 0-1.7-.1-2.5-.2s-1.6-.2-2.4-.4c-.7-.2-1.3-.4-2-.6-.5-.1-.9-.4-1.3-.7 0-.7.1-1.3.2-2l.3-2.1c.1-.7.2-1.4.4-2 .1-.6.3-1.2.4-1.7h1.4l1.2 5.7z" fill="#212683"/></g></svg>