<?xml version="1.0" encoding="UTF-8"?>
<svg width="323px" height="65px" viewBox="0 0 323 65" version="1.1" xmlns="http://www.w3.org/2000/svg" xmlns:xlink="http://www.w3.org/1999/xlink">
    <!-- Generator: Sketch 49.3 (51167) - http://www.bohemiancoding.com/sketch -->
    <title>logo-negative</title>
    <desc>Created with Sketch.</desc>
    <defs></defs>
    <g id="logo-negative" stroke="none" stroke-width="1" fill="none" fill-rule="evenodd">
        <path d="M0,31.3943662 L3.29390018,31.3943662 L3.29390018,58.6056338 L0,58.6056338 L0,31.3943662 Z M19.5637708,40.7605634 L17.4676525,36.8169014 L17.2680222,36.8169014 L17.6672828,40.7605634 L17.6672828,58.6056338 L14.5730129,58.6056338 L14.5730129,31 L16.2698706,31 L29.4454713,49.1408451 L31.4417745,52.8873239 L31.6414048,52.8873239 L31.2421442,49.1408451 L31.2421442,31.3943662 L34.336414,31.3943662 L34.336414,59 L32.6395564,59 L19.5637708,40.7605634 Z M61.8853974,34.2535211 L53.3012939,34.2535211 L53.3012939,58.6056338 L50.0073937,58.6056338 L50.0073937,34.2535211 L41.4232902,34.2535211 L41.4232902,31.3943662 L61.8853974,31.3943662 L61.8853974,34.2535211 Z M69.87061,31.3943662 L84.8428835,31.3943662 L84.8428835,34.2535211 L73.1645102,34.2535211 L73.1645102,43.1267606 L83.9445471,43.1267606 L83.9445471,45.9859155 L73.1645102,45.9859155 L73.1645102,55.6478873 L85.142329,55.6478873 L85.142329,58.5070423 L69.9704251,58.5070423 L69.87061,31.3943662 Z M94.8243993,31.5915493 C95.8225508,31.3943662 96.9205176,31.2957746 98.3179298,31.1971831 C99.6155268,31.0985915 100.813309,31 101.911275,31 C103.109057,31 104.207024,31.0985915 105.404806,31.3943662 C106.402957,31.5915493 107.401109,32.084507 108.299445,32.6760563 C109.097967,33.2676056 109.796673,34.056338 110.295749,35.0422535 C111.593346,37.9014085 111.194085,41.2535211 109.297597,43.7183099 C108.099815,45 106.502773,45.9859155 104.805915,46.3802817 L106.702403,47.8591549 L113.589649,58.6056338 L109.796673,58.6056338 L102.210721,46.8732394 L98.3179298,46.2816901 L98.3179298,58.6056338 L95.0240296,58.6056338 L94.8243993,31.5915493 Z M101.911275,33.8591549 L99.715342,33.8591549 L98.7171904,33.9577465 C98.5175601,33.9577465 98.2181146,34.056338 98.0184843,34.056338 L98.0184843,44.1126761 L101.112754,44.1126761 C102.709797,44.2112676 104.306839,43.7183099 105.604436,42.8309859 C106.802218,41.8450704 107.500924,40.2676056 107.401109,38.6901408 C107.401109,37.4084507 106.902033,36.1267606 105.903882,35.2394366 C104.805915,34.2535211 103.408503,33.7605634 101.911275,33.8591549 Z M127.463956,50.028169 L128.462107,54.1690141 L129.460259,49.9295775 L136.147874,31.2957746 L139.441774,31.2957746 L128.961183,58.9014085 L127.463956,58.9014085 L116.883549,31.2957746 L120.476895,31.2957746 L127.463956,50.028169 Z M147.327172,31.3943662 L150.621072,31.3943662 L150.621072,58.6056338 L147.327172,58.6056338 L147.327172,31.3943662 Z M162,31.3943662 L176.972274,31.3943662 L176.972274,34.2535211 L165.2939,34.2535211 L165.2939,43.1267606 L176.073937,43.1267606 L176.073937,45.9859155 L165.2939,45.9859155 L165.2939,55.6478873 L177.171904,55.6478873 L177.171904,58.5070423 L162,58.5070423 L162,31.3943662 Z M192.443623,49.5352113 L193.042514,54.0704225 L193.74122,49.4366197 L199.430684,31.2957746 L201.027726,31.2957746 L206.71719,49.5352113 L207.415896,54.0704225 L208.114603,49.4366197 L212.805915,31.2957746 L216,31.2957746 L208.314233,58.9014085 L206.51756,58.9014085 L200.927911,40.6619718 L200.229205,36.5211268 L200.029575,36.5211268 L199.330869,40.6619718 L193.74122,58.9014085 L191.944547,58.9014085 L184.05915,31.2957746 L187.55268,31.2957746 L192.443623,49.5352113 Z" id="Shape" fill="#FFFFFF" fill-rule="nonzero"></path>
        <path d="M225,31.2973761 L237.034492,31.2973761 L237.034492,32.7842566 C236.537199,33.0816327 236.139365,33.2798834 235.642072,33.4781341 C235.144779,33.6763848 234.647486,33.7755102 234.050734,33.8746356 L234.050734,53.8979592 C234.150192,55.6822157 233.752358,57.4664723 233.056148,59.1516035 C232.558855,60.3411079 231.763186,61.4314869 230.7686,62.4227405 C229.972931,63.1166181 229.077803,63.7113703 228.083217,64.2069971 C227.387007,64.5043732 226.591338,64.8017493 225.895128,65 L225.099459,64.0087464 C225.497293,63.6122449 225.895128,63.2157434 226.193503,62.819242 C226.591338,62.2244898 226.989172,61.6297376 227.18809,60.9358601 C227.486465,60.0437318 227.685383,59.1516035 227.8843,58.1603499 C228.083217,56.8717201 228.182676,55.483965 228.182676,54.1953353 L228.182676,33.9737609 C227.585924,33.8746356 226.989172,33.6763848 226.491879,33.4781341 C225.994586,33.2798834 225.497293,33.0816327 225,32.7842566 L225,31.2973761 Z M248.273316,55.3848397 C248.67115,55.6822157 249.068985,55.9795918 249.466819,56.1778426 C250.163029,56.4752187 250.85924,56.574344 251.55545,56.574344 C252.848412,56.574344 254.141374,56.2769679 255.13596,55.483965 C256.130546,54.7900875 256.627839,53.6005831 256.627839,52.4110787 C256.627839,51.5189504 256.329463,50.6268222 255.732712,50.03207 C255.036501,49.3381924 254.240832,48.7434402 253.445164,48.2478134 C252.550036,47.6530612 251.55545,47.1574344 250.461405,46.6618076 C249.36736,46.1661808 248.372774,45.4723032 247.477647,44.7784257 C246.582519,44.0845481 245.78685,43.1924198 245.190099,42.2011662 C244.493888,41.1107872 244.195512,39.7230321 244.294971,38.4344023 C244.294971,37.244898 244.493888,36.154519 244.991181,35.1632653 C245.488474,34.271137 246.184685,33.4781341 246.980354,32.8833819 C247.875481,32.2886297 248.870067,31.7930029 249.864653,31.4956268 C251.058157,31.1982507 252.25166,31 253.544622,31 C255.036501,31 256.528381,31.0991254 258.02026,31.2973761 C259.313222,31.4956268 260.506725,31.7930029 261.700228,32.2886297 C261.700228,32.7842566 261.700228,33.3790087 261.60077,34.0728863 C261.501311,34.7667638 261.401853,35.4606414 261.302394,36.0553936 C261.202935,36.6501458 261.103477,37.3440233 261.004018,37.9387755 C260.90456,38.5335277 260.805101,39.0291545 260.705642,39.425656 L259.114305,39.425656 L257.324049,34.0728863 C256.926215,33.8746356 256.428922,33.7755102 255.931629,33.6763848 C255.334877,33.5772595 254.638667,33.4781341 254.041915,33.4781341 C253.047329,33.4781341 252.052743,33.7755102 251.257074,34.3702624 C250.461405,34.9650146 250.063571,35.8571429 250.063571,36.8483965 C250.063571,37.7405248 250.361947,38.6326531 251.058157,39.3265306 C251.754367,40.0204082 252.550036,40.7142857 253.445164,41.2099125 C254.340291,41.8046647 255.434336,42.3994169 256.528381,42.8950437 C257.622425,43.4897959 258.617011,44.0845481 259.611598,44.877551 C260.506725,45.5714286 261.302394,46.4635569 261.998604,47.4548105 C262.694815,48.5451895 262.99319,49.8338192 262.99319,51.122449 C263.092649,53.4023324 262.098063,55.6822157 260.307808,57.1690962 C258.517553,58.5568513 255.931629,59.3498542 252.550036,59.3498542 C251.754367,59.3498542 250.85924,59.2507289 250.063571,59.1516035 C249.267902,59.0524781 248.472233,58.9533528 247.676564,58.755102 C246.980354,58.5568513 246.383602,58.3586006 245.687392,58.1603499 C245.190099,58.0612245 244.792264,57.7638484 244.39443,57.4664723 C244.39443,56.7725948 244.493888,56.1778426 244.593347,55.483965 L244.891723,53.4023324 C244.991181,52.7084548 245.09064,52.0145773 245.289557,51.4198251 C245.389016,50.8250729 245.587933,50.2303207 245.687392,49.7346939 L247.079812,49.7346939 L248.273316,55.3848397 Z" id="Shape" fill="#FFFFFF" fill-rule="nonzero"></path>
        <path d="M296.381268,12.59375 C295.597322,12.59375 294.911368,13.15625 295.009362,13.90625 C295.009362,14.65625 295.597322,15.21875 296.381268,15.21875 C297.165215,15.21875 297.753175,14.65625 297.753175,13.90625 C297.851168,13.25 297.165215,12.59375 296.381268,12.59375 Z M311.864214,11 C310.100334,11 308.728427,12.3125 308.728427,14 C308.728427,15.59375 310.100334,17 311.864214,17 C313.5301,17 315,15.6875 315,14 C315,12.40625 313.628093,11 311.864214,11 Z" id="Shape" fill="#FFFFFF" fill-rule="nonzero"></path>
        <circle id="Oval" fill="#FFFFFF" fill-rule="nonzero" cx="303.5" cy="14" r="2.5"></circle>
        <path d="M304.184358,33.8108108 C303.882682,34.7027027 303.27933,35.5945946 302.47486,36.1891892 C301.268156,37.1801802 299.759777,37.7747748 297.949721,37.7747748 L290.106145,37.7747748 C289.905028,37.7747748 289.603352,37.8738739 289.502793,37.972973 L281.960894,42.6306306 L281.960894,38.963964 C281.960894,38.3693694 281.458101,37.7747748 280.75419,37.7747748 C279.748603,37.7747748 278.441341,37.5765766 277.335196,37.1801802 C276.329609,36.8828829 275.424581,36.3873874 274.921788,35.8918919 C274.418994,35.3963964 274.01676,34.8018018 273.715084,34.1081081 C273.513966,33.5135135 273.312849,32.8198198 273.312849,32.027027 L273.312849,20.9279279 C273.312849,19.3423423 274.01676,17.8558559 275.223464,16.8648649 C276.430168,15.7747748 278.039106,15.1801802 279.849162,15.1801802 L284.675978,15.1801802 L284.675978,13 L279.849162,13 C277.435754,13 275.223464,13.8918919 273.614525,15.3783784 C272.005587,16.7657658 271,18.8468468 271,21.1261261 L271,32.2252252 C271,33.2162162 271.201117,34.2072072 271.603352,35.0990991 C272.005587,35.990991 272.608939,36.8828829 273.312849,37.5765766 C274.117318,38.3693694 275.324022,38.963964 276.631285,39.4594595 C277.636872,39.7567568 278.642458,40.0540541 279.648045,40.1531532 L279.648045,44.8108108 C279.648045,45.4054054 280.150838,46 280.854749,46 C281.156425,46 281.357542,45.9009009 281.558659,45.8018018 L290.608939,40.2522523 L298.150838,40.2522523 C300.463687,40.2522523 302.575419,39.3603604 304.184358,38.0720721 C305.793296,36.7837838 306.798883,34.9009009 307,32.7207207 L304.787709,31.4324324 C304.586592,32.2252252 304.486034,33.018018 304.184358,33.8108108 Z" id="Shape" fill="#FFFFFF" fill-rule="nonzero"></path>
        <path d="M279,20.8108108 C279,21.4054054 279.5,22 280.2,22 L285.5,22 C285.3,21.2072072 285.1,20.4144144 285.1,19.7207207 L280.2,19.7207207 C279.5,19.7207207 279,20.2162162 279,20.8108108 Z M279,31.4144144 C279,32.009009 279.5,32.6036036 280.2,32.6036036 L298.4,32.6036036 C299,32.6036036 299.6,32.1081081 299.6,31.4144144 C299.6,30.8198198 299.1,30.2252252 298.4,30.2252252 L280.2,30.2252252 C279.6,30.2252252 279,30.7207207 279,31.4144144 Z M286.8,24.972973 L280.2,24.972973 C279.6,24.972973 279,25.4684685 279,26.1621622 C279,26.7567568 279.5,27.3513514 280.2,27.3513514 L289.3,27.3513514 C288.3,26.5585586 287.5,25.8648649 286.8,24.972973 Z M320.4,2.37837838 C318.7,0.891891892 316.5,0 314.2,0 L296,0 C293.6,0 291.4,0.891891892 289.8,2.37837838 C288.2,3.76576577 287.2,5.84684685 287.2,8.12612613 L287.2,19.2252252 C287.2,20.4144144 287.5,21.5045045 288,22.5945946 C288.1,22.7927928 288.2,22.990991 288.2,23.0900901 C288.6,23.7837838 289.2,24.4774775 289.8,24.972973 C291.3,26.2612613 293.4,27.2522523 295.9,27.2522523 L303.4,27.2522523 L312.4,32.8018018 C312.6,33 312.9,33 313.1,33 C313.7,33 314.3,32.5045045 314.3,31.8108108 L314.3,27.1531532 C315.3,27.0540541 316.4,26.8558559 317.4,26.4594595 C318.7,25.963964 319.9,25.3693694 320.7,24.5765766 C321.5,23.7837838 322,22.990991 322.4,22.0990991 C322.7,21.2072072 323,20.2162162 323,19.1261261 L323,8.02702703 C323,5.84684685 322.1,3.86486486 320.4,2.37837838 Z M320.6,19.1261261 C320.6,19.9189189 320.5,20.5135135 320.2,21.2072072 C319.9,21.9009009 319.5,22.4954955 319,22.990991 C318.5,23.4864865 317.6,23.981982 316.6,24.2792793 C315.5,24.6756757 314.2,24.8738739 313.2,24.8738739 C312.6,24.8738739 312,25.3693694 312,26.0630631 L312,29.7297297 L304.5,25.0720721 C304.3,24.972973 304.1,24.8738739 303.9,24.8738739 L295.7,24.8738739 C294.1,24.7747748 292.6,24.1801802 291.4,23.1891892 C290.2,22.1981982 289.5,20.7117117 289.5,19.1261261 L289.5,8.02702703 C289.5,6.44144144 290.2,4.95495495 291.4,3.96396396 C292.7,2.77477477 294.4,2.27927928 296.1,2.27927928 L314.2,2.27927928 C316,2.27927928 317.6,2.87387387 318.8,3.96396396 C320,4.95495495 320.7,6.44144144 320.7,8.02702703 L320.7,19.1261261 L320.6,19.1261261 Z" id="Shape" fill="#FFFFFF" fill-rule="nonzero"></path>
    </g>
</svg>