<?xml version="1.0" encoding="UTF-8"?>
<svg width="360px" height="90px" viewBox="0 0 360 90" version="1.1" xmlns="http://www.w3.org/2000/svg" xmlns:xlink="http://www.w3.org/1999/xlink">
    <!-- Generator: Sketch 49.3 (51167) - http://www.bohemiancoding.com/sketch -->
    <title>logo-negative---use when aligning to center</title>
    <desc>Created with Sketch.</desc>
    <defs></defs>
    <g id="logo-negative---use-when-aligning-to-center" stroke="none" stroke-width="1" fill="none" fill-rule="evenodd">
        <path d="M37,31.3943662 L40.2939002,31.3943662 L40.2939002,58.6056338 L37,58.6056338 L37,31.3943662 Z M56.5637708,40.7605634 L54.4676525,36.8169014 L54.2680222,36.8169014 L54.6672828,40.7605634 L54.6672828,58.6056338 L51.5730129,58.6056338 L51.5730129,31 L53.2698706,31 L66.4454713,49.1408451 L68.4417745,52.8873239 L68.6414048,52.8873239 L68.2421442,49.1408451 L68.2421442,31.3943662 L71.336414,31.3943662 L71.336414,59 L69.6395564,59 L56.5637708,40.7605634 Z M98.8853974,34.2535211 L90.3012939,34.2535211 L90.3012939,58.6056338 L87.0073937,58.6056338 L87.0073937,34.2535211 L78.4232902,34.2535211 L78.4232902,31.3943662 L98.8853974,31.3943662 L98.8853974,34.2535211 Z M106.87061,31.3943662 L121.842884,31.3943662 L121.842884,34.2535211 L110.16451,34.2535211 L110.16451,43.1267606 L120.944547,43.1267606 L120.944547,45.9859155 L110.16451,45.9859155 L110.16451,55.6478873 L122.142329,55.6478873 L122.142329,58.5070423 L106.970425,58.5070423 L106.87061,31.3943662 Z M131.824399,31.5915493 C132.822551,31.3943662 133.920518,31.2957746 135.31793,31.1971831 C136.615527,31.0985915 137.813309,31 138.911275,31 C140.109057,31 141.207024,31.0985915 142.404806,31.3943662 C143.402957,31.5915493 144.401109,32.084507 145.299445,32.6760563 C146.097967,33.2676056 146.796673,34.056338 147.295749,35.0422535 C148.593346,37.9014085 148.194085,41.2535211 146.297597,43.7183099 C145.099815,45 143.502773,45.9859155 141.805915,46.3802817 L143.702403,47.8591549 L150.589649,58.6056338 L146.796673,58.6056338 L139.210721,46.8732394 L135.31793,46.2816901 L135.31793,58.6056338 L132.02403,58.6056338 L131.824399,31.5915493 Z M138.911275,33.8591549 L136.715342,33.8591549 L135.71719,33.9577465 C135.51756,33.9577465 135.218115,34.056338 135.018484,34.056338 L135.018484,44.1126761 L138.112754,44.1126761 C139.709797,44.2112676 141.306839,43.7183099 142.604436,42.8309859 C143.802218,41.8450704 144.500924,40.2676056 144.401109,38.6901408 C144.401109,37.4084507 143.902033,36.1267606 142.903882,35.2394366 C141.805915,34.2535211 140.408503,33.7605634 138.911275,33.8591549 Z M164.463956,50.028169 L165.462107,54.1690141 L166.460259,49.9295775 L173.147874,31.2957746 L176.441774,31.2957746 L165.961183,58.9014085 L164.463956,58.9014085 L153.883549,31.2957746 L157.476895,31.2957746 L164.463956,50.028169 Z M184.327172,31.3943662 L187.621072,31.3943662 L187.621072,58.6056338 L184.327172,58.6056338 L184.327172,31.3943662 Z M199,31.3943662 L213.972274,31.3943662 L213.972274,34.2535211 L202.2939,34.2535211 L202.2939,43.1267606 L213.073937,43.1267606 L213.073937,45.9859155 L202.2939,45.9859155 L202.2939,55.6478873 L214.171904,55.6478873 L214.171904,58.5070423 L199,58.5070423 L199,31.3943662 Z M229.443623,49.5352113 L230.042514,54.0704225 L230.74122,49.4366197 L236.430684,31.2957746 L238.027726,31.2957746 L243.71719,49.5352113 L244.415896,54.0704225 L245.114603,49.4366197 L249.805915,31.2957746 L253,31.2957746 L245.314233,58.9014085 L243.51756,58.9014085 L237.927911,40.6619718 L237.229205,36.5211268 L237.029575,36.5211268 L236.330869,40.6619718 L230.74122,58.9014085 L228.944547,58.9014085 L221.05915,31.2957746 L224.55268,31.2957746 L229.443623,49.5352113 Z" id="Shape" fill="#FFFFFF" fill-rule="nonzero"></path>
        <path d="M262,31.2973761 L274.034492,31.2973761 L274.034492,32.7842566 C273.537199,33.0816327 273.139365,33.2798834 272.642072,33.4781341 C272.144779,33.6763848 271.647486,33.7755102 271.050734,33.8746356 L271.050734,53.8979592 C271.150192,55.6822157 270.752358,57.4664723 270.056148,59.1516035 C269.558855,60.3411079 268.763186,61.4314869 267.7686,62.4227405 C266.972931,63.1166181 266.077803,63.7113703 265.083217,64.2069971 C264.387007,64.5043732 263.591338,64.8017493 262.895128,65 L262.099459,64.0087464 C262.497293,63.6122449 262.895128,63.2157434 263.193503,62.819242 C263.591338,62.2244898 263.989172,61.6297376 264.18809,60.9358601 C264.486465,60.0437318 264.685383,59.1516035 264.8843,58.1603499 C265.083217,56.8717201 265.182676,55.483965 265.182676,54.1953353 L265.182676,33.9737609 C264.585924,33.8746356 263.989172,33.6763848 263.491879,33.4781341 C262.994586,33.2798834 262.497293,33.0816327 262,32.7842566 L262,31.2973761 Z M285.273316,55.3848397 C285.67115,55.6822157 286.068985,55.9795918 286.466819,56.1778426 C287.163029,56.4752187 287.85924,56.574344 288.55545,56.574344 C289.848412,56.574344 291.141374,56.2769679 292.13596,55.483965 C293.130546,54.7900875 293.627839,53.6005831 293.627839,52.4110787 C293.627839,51.5189504 293.329463,50.6268222 292.732712,50.03207 C292.036501,49.3381924 291.240832,48.7434402 290.445164,48.2478134 C289.550036,47.6530612 288.55545,47.1574344 287.461405,46.6618076 C286.36736,46.1661808 285.372774,45.4723032 284.477647,44.7784257 C283.582519,44.0845481 282.78685,43.1924198 282.190099,42.2011662 C281.493888,41.1107872 281.195512,39.7230321 281.294971,38.4344023 C281.294971,37.244898 281.493888,36.154519 281.991181,35.1632653 C282.488474,34.271137 283.184685,33.4781341 283.980354,32.8833819 C284.875481,32.2886297 285.870067,31.7930029 286.864653,31.4956268 C288.058157,31.1982507 289.25166,31 290.544622,31 C292.036501,31 293.528381,31.0991254 295.02026,31.2973761 C296.313222,31.4956268 297.506725,31.7930029 298.700228,32.2886297 C298.700228,32.7842566 298.700228,33.3790087 298.60077,34.0728863 C298.501311,34.7667638 298.401853,35.4606414 298.302394,36.0553936 C298.202935,36.6501458 298.103477,37.3440233 298.004018,37.9387755 C297.90456,38.5335277 297.805101,39.0291545 297.705642,39.425656 L296.114305,39.425656 L294.324049,34.0728863 C293.926215,33.8746356 293.428922,33.7755102 292.931629,33.6763848 C292.334877,33.5772595 291.638667,33.4781341 291.041915,33.4781341 C290.047329,33.4781341 289.052743,33.7755102 288.257074,34.3702624 C287.461405,34.9650146 287.063571,35.8571429 287.063571,36.8483965 C287.063571,37.7405248 287.361947,38.6326531 288.058157,39.3265306 C288.754367,40.0204082 289.550036,40.7142857 290.445164,41.2099125 C291.340291,41.8046647 292.434336,42.3994169 293.528381,42.8950437 C294.622425,43.4897959 295.617011,44.0845481 296.611598,44.877551 C297.506725,45.5714286 298.302394,46.4635569 298.998604,47.4548105 C299.694815,48.5451895 299.99319,49.8338192 299.99319,51.122449 C300.092649,53.4023324 299.098063,55.6822157 297.307808,57.1690962 C295.517553,58.5568513 292.931629,59.3498542 289.550036,59.3498542 C288.754367,59.3498542 287.85924,59.2507289 287.063571,59.1516035 C286.267902,59.0524781 285.472233,58.9533528 284.676564,58.755102 C283.980354,58.5568513 283.383602,58.3586006 282.687392,58.1603499 C282.190099,58.0612245 281.792264,57.7638484 281.39443,57.4664723 C281.39443,56.7725948 281.493888,56.1778426 281.593347,55.483965 L281.891723,53.4023324 C281.991181,52.7084548 282.09064,52.0145773 282.289557,51.4198251 C282.389016,50.8250729 282.587933,50.2303207 282.687392,49.7346939 L284.079812,49.7346939 L285.273316,55.3848397 Z" id="Shape" fill="#FFFFFF" fill-rule="nonzero"></path>
        <path d="M333.381268,12.59375 C332.597322,12.59375 331.911368,13.15625 332.009362,13.90625 C332.009362,14.65625 332.597322,15.21875 333.381268,15.21875 C334.165215,15.21875 334.753175,14.65625 334.753175,13.90625 C334.851168,13.25 334.165215,12.59375 333.381268,12.59375 Z M348.864214,11 C347.100334,11 345.728427,12.3125 345.728427,14 C345.728427,15.59375 347.100334,17 348.864214,17 C350.5301,17 352,15.6875 352,14 C352,12.40625 350.628093,11 348.864214,11 Z" id="Shape" fill="#FFFFFF" fill-rule="nonzero"></path>
        <circle id="Oval" fill="#FFFFFF" fill-rule="nonzero" cx="340.5" cy="14" r="2.5"></circle>
        <path d="M341.184358,33.8108108 C340.882682,34.7027027 340.27933,35.5945946 339.47486,36.1891892 C338.268156,37.1801802 336.759777,37.7747748 334.949721,37.7747748 L327.106145,37.7747748 C326.905028,37.7747748 326.603352,37.8738739 326.502793,37.972973 L318.960894,42.6306306 L318.960894,38.963964 C318.960894,38.3693694 318.458101,37.7747748 317.75419,37.7747748 C316.748603,37.7747748 315.441341,37.5765766 314.335196,37.1801802 C313.329609,36.8828829 312.424581,36.3873874 311.921788,35.8918919 C311.418994,35.3963964 311.01676,34.8018018 310.715084,34.1081081 C310.513966,33.5135135 310.312849,32.8198198 310.312849,32.027027 L310.312849,20.9279279 C310.312849,19.3423423 311.01676,17.8558559 312.223464,16.8648649 C313.430168,15.7747748 315.039106,15.1801802 316.849162,15.1801802 L321.675978,15.1801802 L321.675978,13 L316.849162,13 C314.435754,13 312.223464,13.8918919 310.614525,15.3783784 C309.005587,16.7657658 308,18.8468468 308,21.1261261 L308,32.2252252 C308,33.2162162 308.201117,34.2072072 308.603352,35.0990991 C309.005587,35.990991 309.608939,36.8828829 310.312849,37.5765766 C311.117318,38.3693694 312.324022,38.963964 313.631285,39.4594595 C314.636872,39.7567568 315.642458,40.0540541 316.648045,40.1531532 L316.648045,44.8108108 C316.648045,45.4054054 317.150838,46 317.854749,46 C318.156425,46 318.357542,45.9009009 318.558659,45.8018018 L327.608939,40.2522523 L335.150838,40.2522523 C337.463687,40.2522523 339.575419,39.3603604 341.184358,38.0720721 C342.793296,36.7837838 343.798883,34.9009009 344,32.7207207 L341.787709,31.4324324 C341.586592,32.2252252 341.486034,33.018018 341.184358,33.8108108 Z" id="Shape" fill="#FFFFFF" fill-rule="nonzero"></path>
        <path d="M316,20.8108108 C316,21.4054054 316.5,22 317.2,22 L322.5,22 C322.3,21.2072072 322.1,20.4144144 322.1,19.7207207 L317.2,19.7207207 C316.5,19.7207207 316,20.2162162 316,20.8108108 Z M316,31.4144144 C316,32.009009 316.5,32.6036036 317.2,32.6036036 L335.4,32.6036036 C336,32.6036036 336.6,32.1081081 336.6,31.4144144 C336.6,30.8198198 336.1,30.2252252 335.4,30.2252252 L317.2,30.2252252 C316.6,30.2252252 316,30.7207207 316,31.4144144 Z M323.8,24.972973 L317.2,24.972973 C316.6,24.972973 316,25.4684685 316,26.1621622 C316,26.7567568 316.5,27.3513514 317.2,27.3513514 L326.3,27.3513514 C325.3,26.5585586 324.5,25.8648649 323.8,24.972973 Z M357.4,2.37837838 C355.7,0.891891892 353.5,0 351.2,0 L333,0 C330.6,0 328.4,0.891891892 326.8,2.37837838 C325.2,3.76576577 324.2,5.84684685 324.2,8.12612613 L324.2,19.2252252 C324.2,20.4144144 324.5,21.5045045 325,22.5945946 C325.1,22.7927928 325.2,22.990991 325.2,23.0900901 C325.6,23.7837838 326.2,24.4774775 326.8,24.972973 C328.3,26.2612613 330.4,27.2522523 332.9,27.2522523 L340.4,27.2522523 L349.4,32.8018018 C349.6,33 349.9,33 350.1,33 C350.7,33 351.3,32.5045045 351.3,31.8108108 L351.3,27.1531532 C352.3,27.0540541 353.4,26.8558559 354.4,26.4594595 C355.7,25.963964 356.9,25.3693694 357.7,24.5765766 C358.5,23.7837838 359,22.990991 359.4,22.0990991 C359.7,21.2072072 360,20.2162162 360,19.1261261 L360,8.02702703 C360,5.84684685 359.1,3.86486486 357.4,2.37837838 Z M357.6,19.1261261 C357.6,19.9189189 357.5,20.5135135 357.2,21.2072072 C356.9,21.9009009 356.5,22.4954955 356,22.990991 C355.5,23.4864865 354.6,23.981982 353.6,24.2792793 C352.5,24.6756757 351.2,24.8738739 350.2,24.8738739 C349.6,24.8738739 349,25.3693694 349,26.0630631 L349,29.7297297 L341.5,25.0720721 C341.3,24.972973 341.1,24.8738739 340.9,24.8738739 L332.7,24.8738739 C331.1,24.7747748 329.6,24.1801802 328.4,23.1891892 C327.2,22.1981982 326.5,20.7117117 326.5,19.1261261 L326.5,8.02702703 C326.5,6.44144144 327.2,4.95495495 328.4,3.96396396 C329.7,2.77477477 331.4,2.27927928 333.1,2.27927928 L351.2,2.27927928 C353,2.27927928 354.6,2.87387387 355.8,3.96396396 C357,4.95495495 357.7,6.44144144 357.7,8.02702703 L357.7,19.1261261 L357.6,19.1261261 Z" id="Shape" fill="#FFFFFF" fill-rule="nonzero"></path>
    </g>
</svg>