<?xml version="1.0" encoding="utf-8"?>
<!-- Generator: Adobe Illustrator 21.1.0, SVG Export Plug-In . SVG Version: 6.00 Build 0)  -->
<svg version="1.1" id="Layer_1" xmlns="http://www.w3.org/2000/svg" xmlns:xlink="http://www.w3.org/1999/xlink" x="0px" y="0px"
	 viewBox="0 0 528 175" style="enable-background:new 0 0 528 175;" xml:space="preserve">
<style type="text/css">
	.st0{fill:#495ABD;}
	.st1{fill:#FFFFFF;}
</style>
<title>Group 3</title>
<desc>Created with Sketch.</desc>
<g id="Page-1">
	<g id="Group-3">
		<path id="Rectangle-path" class="st0" d="M12,0h504c6.6,0,12,3.8,12,8.4v158.1c0,4.7-5.4,8.4-12,8.4H12c-6.6,0-12-3.8-12-8.4V8.4
			C0,3.8,5.4,0,12,0z"/>
		<path id="Shape" class="st1" d="M398.9,59.9h7.2c0.7,0,1.3,0.6,1.3,1.3c0,0.7-0.6,1.3-1.3,1.3h-7.2c-0.7,0-1.3-0.6-1.3-1.3
			C397.6,60.5,398.2,59.9,398.9,59.9"/>
		<path id="Shape_1_" class="st1" d="M398.9,67.1H421c0.7,0,1.3,0.6,1.3,1.3s-0.6,1.3-1.3,1.3h-22.2c-0.7,0-1.3-0.6-1.3-1.3
			S398.2,67.1,398.9,67.1"/>
		<path id="Shape_2_" class="st1" d="M398.9,74.3H421c0.7,0,1.3,0.6,1.3,1.3c0,0.7-0.6,1.3-1.3,1.3h-22.2c-0.7,0-1.3-0.6-1.3-1.3
			C397.6,74.9,398.2,74.3,398.9,74.3"/>
		<polygon id="Shape_3_" class="st1" points="109.4,89.6 112.7,89.6 112.7,117.2 109.4,117.2 		"/>
		<polygon id="Shape_4_" class="st1" points="129,99.1 126.9,95.1 126.7,95.1 127.1,99.1 127.1,117.2 124.1,117.2 124.1,89.2 
			125.8,89.2 139,107.6 141,111.4 141.2,111.4 140.8,107.6 140.8,89.6 143.9,89.6 143.9,117.6 142.2,117.6 		"/>
		<polygon id="Shape_5_" class="st1" points="172.4,92.5 163.8,92.5 163.8,117.1 160.5,117.1 160.5,92.5 151.9,92.5 151.9,89.6 
			172.4,89.6 172.4,92.5 		"/>
		<polygon id="Shape_6_" class="st1" points="180.4,89.6 195.4,89.6 195.4,92.5 183.6,92.5 183.6,101.5 194.4,101.5 194.4,104.4 
			183.6,104.4 183.6,114.2 195.6,114.2 195.6,117.1 180.4,117.1 180.4,89.5 		"/>
		<path id="Shape_7_" class="st1" d="M205.4,89.8c1-0.2,2.1-0.3,3.4-0.4s2.5-0.2,3.6-0.2c1.2,0,2.3,0.1,3.4,0.4c1,0.2,2,0.7,2.9,1.3
			c0.8,0.6,1.5,1.4,2,2.4c1.3,2.9,0.9,6.3-1,8.8c-1.2,1.3-2.8,2.3-4.5,2.7l1.9,1.5l6.9,10.9h-3.8l-7.6-11.9l-3.9-0.6v12.5h-3.3
			L205.4,89.8L205.4,89.8z M212.5,92.1h-1.1c-0.4,0-0.7,0-1.1,0l-1,0.1c-0.2,0-0.5,0.1-0.7,0.1v10.2h3.1c1.6,0.1,3.2-0.4,4.5-1.3
			c1.2-1,1.9-2.6,1.8-4.2c0-1.3-0.5-2.6-1.5-3.5C215.4,92.5,214,92,212.5,92.1L212.5,92.1z"/>
		<polygon id="Shape_8_" class="st1" points="238.1,108.5 239.1,112.7 239.1,112.7 240.1,108.4 246.7,89.6 250,89.6 239.6,117.6 
			238.1,117.6 227.5,89.6 231.1,89.6 		"/>
		<polygon id="Shape_9_" class="st1" points="258,89.6 261.3,89.6 261.3,117.2 258,117.2 		"/>
		<polygon id="Shape_10_" class="st1" points="272.7,89.6 287.7,89.6 287.7,92.5 276,92.5 276,101.5 286.7,101.5 286.7,104.4 
			276,104.4 276,114.2 287.9,114.2 287.9,117.1 272.7,117.1 272.7,89.5 		"/>
		<polygon id="Shape_11_" class="st1" points="303.2,108.1 303.8,112.6 303.8,112.6 304.5,108 310.2,89.6 311.8,89.6 317.5,108.1 
			318.1,112.6 318.1,112.6 318.9,108 323.5,89.6 326.7,89.6 319,117.6 317.2,117.6 311.6,99.1 310.9,94.9 310.7,94.9 310,99.1 
			304.4,117.6 302.6,117.6 294.7,89.6 298.2,89.6 		"/>
		<path id="Shape_12_" class="st1" d="M332.1,89.6h12.1v1.5c-0.5,0.3-0.9,0.5-1.4,0.7c-0.5,0.2-1,0.3-1.6,0.4v20.2
			c0.1,1.8-0.3,3.6-1,5.3c-0.5,1.2-1.3,2.3-2.3,3.3c-0.8,0.7-1.7,1.3-2.7,1.8c-0.7,0.3-1.5,0.6-2.2,0.8l-0.8-1
			c0.4-0.4,0.8-0.8,1.1-1.2c0.4-0.6,0.8-1.2,1-1.9c0.3-0.9,0.5-1.8,0.7-2.8c0.2-1.3,0.3-2.7,0.3-4V92.2c-0.6-0.1-1.1-0.3-1.7-0.4
			c-0.5-0.2-1-0.4-1.5-0.7L332.1,89.6L332.1,89.6z"/>
		<path id="Shape_13_" class="st1" d="M355.5,113.9c0.4,0.3,0.8,0.6,1.2,0.8c0.7,0.3,1.4,0.4,2.1,0.4c1.3,0,2.6-0.3,3.6-1.1
			c1-0.7,1.5-1.9,1.5-3.1c0-0.9-0.3-1.8-0.9-2.4c-0.7-0.7-1.5-1.3-2.3-1.8c-0.9-0.6-1.9-1.1-3-1.6c-1.1-0.5-2.1-1.2-3-1.9
			c-0.9-0.7-1.7-1.6-2.4-2.6c-0.7-1.1-1-2.5-0.9-3.8c0-1.2,0.2-2.3,0.7-3.3c0.5-0.9,1.2-1.7,2-2.3c0.9-0.6,1.9-1.1,2.9-1.4
			c1.2-0.3,2.4-0.5,3.7-0.5c1.5,0,3,0.1,4.5,0.3c1.3,0.2,2.5,0.5,3.7,1c0,0.5,0,1.1-0.1,1.8c-0.1,0.7-0.1,1.4-0.3,2
			c-0.1,0.6-0.2,1.3-0.3,1.9c-0.1,0.6-0.2,1.1-0.3,1.5h-1.6l-1.8-5.4c-0.4-0.2-0.9-0.3-1.4-0.4c-0.6-0.1-1.3-0.2-1.9-0.2
			c-1,0-2,0.3-2.8,0.9c-0.8,0.6-1.2,1.5-1.1,2.5c0,0.9,0.3,1.8,0.9,2.5c0.7,0.7,1.5,1.4,2.4,1.9c0.9,0.6,2,1.2,3.1,1.7
			c1.1,0.6,2.1,1.2,3.1,2c0.9,0.7,1.7,1.6,2.4,2.6c0.7,1.1,1,2.4,1,3.7c0.1,2.3-0.9,4.6-2.7,6.1c-1.8,1.4-4.4,2.1-7.8,2.1
			c-0.8,0-1.7-0.1-2.5-0.2c-0.8-0.1-1.6-0.2-2.4-0.4c-0.7-0.2-1.3-0.4-2-0.6c-0.5-0.1-0.9-0.4-1.3-0.7c0-0.7,0.1-1.3,0.2-2
			c0.1-0.7,0.2-1.4,0.3-2.1c0.1-0.7,0.2-1.4,0.4-2c0.1-0.6,0.3-1.2,0.4-1.7h1.4L355.5,113.9z"/>
		<path id="Shape_14_" class="st1" d="M398.1,92.4c-0.8-0.3-1.3-1-1.3-1.8v-2.8c0-0.3,0-0.5,0-0.8c0-0.4,0-0.8,0-1.1h-2.4
			c-2.4,0-6.3-1.1-6.3-8.7V60.5c0-5.3,3.1-8.7,12.5-8.7v2.5c-9.6,0-9.9,4.8-9.9,6.2v16.7c0,6.2,2.8,6.2,3.7,6.2h1.7
			c1.2,0,2,0,2.6,0.6c0.6,0.6,0.7,1.5,0.7,3c0,0.2,0,0.5,0,0.7v1.8l7.7-5.1c0.7-0.6,1.7-1,2.7-1h13.7c3.1,0,5.6-2.8,5.6-6.2l2.4,1.8
			c0,0.4-0.1,0.8-0.2,1.1c-1.1,3.4-4.2,5.7-7.7,5.8h-13.7c-0.4,0-0.7,0.1-1,0.4l-0.1,0.1l-8.7,5.8c-0.4,0.3-0.8,0.4-1.3,0.4
			C398.6,92.6,398.4,92.5,398.1,92.4z"/>
		<circle id="Oval" class="st1" cx="436.8" cy="53.3" r="3.9"/>
		<circle id="Oval_1_" class="st1" cx="426.6" cy="53.3" r="2.8"/>
		<circle id="Oval_2_" class="st1" cx="418.1" cy="53.3" r="1.8"/>
		<path id="Shape_15_" class="st1" d="M437.5,78.2c-0.5,0-1-0.2-1.4-0.5l-8.9-7.6c-0.3-0.2-0.6-0.4-1-0.4h-11.3
			c-5.1,0-9.3-4.2-9.3-9.3V46.2c0-5.1,4.2-9.3,9.3-9.3h26.4c5.1,0,9.3,4.2,9.3,9.3v14.2c0,5.1-4.2,9.3-9.3,9.3
			c-0.9,0-1.6,0.7-1.6,1.6v4.8c0,0.8-0.5,1.6-1.2,1.9C438.2,78.2,437.8,78.3,437.5,78.2z M414.9,39.7c-3.6,0-6.5,2.9-6.5,6.5v14.2
			c0,3.6,2.9,6.5,6.5,6.5h11.4c1,0,2,0.3,2.8,1l7.8,6.7v-3.4c0-2.4,2-4.3,4.4-4.3c3.6,0,6.5-2.9,6.5-6.5V46.2c0-3.6-2.9-6.5-6.5-6.5
			L414.9,39.7L414.9,39.7z"/>
	</g>
</g>
</svg>
