<svg width="50" height="60" xmlns="http://www.w3.org/2000/svg"><g fill="none" fill-rule="evenodd"><path d="M49 0c0 2.493-.85 4.485-2.686 5.845a6.635 6.635 0 0 1-6.368.847 26.419 26.419 0 0 0-13.405-3.63C11.882 3.063 0 14.945 0 29.605c0 14.66 11.882 26.542 26.541 26.542a26.419 26.419 0 0 0 13.406-3.63 6.635 6.635 0 0 1 6.289.792C48.063 54.621 49 57.468 49 59.984V0z" fill="#F7F7F7"/><path d="M48 5.67v47.965a5.974 5.974 0 0 0-1.18-1.14 7.635 7.635 0 0 0-7.237-.91l-.142.07a25.42 25.42 0 0 1-12.9 3.49C12.435 55.146 1 43.712 1 29.606 1 15.496 12.435 4.061 26.543 4.061A25.419 25.419 0 0 1 39.44 7.554l.141.069a7.635 7.635 0 0 0 7.328-.975A7.647 7.647 0 0 0 48 5.67zM49 0c0 2.493-.85 4.485-2.686 5.845a6.635 6.635 0 0 1-6.368.847 26.419 26.419 0 0 0-13.405-3.63C11.882 3.063 0 14.945 0 29.605c0 14.66 11.882 26.542 26.541 26.542a26.419 26.419 0 0 0 13.406-3.63 6.635 6.635 0 0 1 6.289.792C48.063 54.621 49 57.468 49 59.984V0z" fill="#E9E9E9" fill-rule="nonzero"/><path d="M48 5.664a5.45 5.45 0 0 0 1-1.724c.224-.63.557-1.944 1-3.94v60c-.456-2.025-.789-3.37-1-4.037-.211-.667-.544-1.443-1-2.328V5.665z" fill="#F7F7F7"/></g></svg>