<?xml version="1.0" encoding="UTF-8"?>
<svg width="323px" height="66px" viewBox="0 0 323 66" version="1.1" xmlns="http://www.w3.org/2000/svg" xmlns:xlink="http://www.w3.org/1999/xlink">
    <!-- Generator: Sketch 49.2 (51160) - http://www.bohemiancoding.com/sketch -->
    <title>Group</title>
    <desc>Created with Sketch.</desc>
    <defs></defs>
    <g id="Page-1" stroke="none" stroke-width="1" fill="none" fill-rule="evenodd">
        <g id="Group" fill-rule="nonzero">
            <polygon id="Shape" fill="#000000" points="0.4 31.4 3.7 31.4 3.7 59 0.4 59"></polygon>
            <polygon id="Shape" fill="#000000" points="20 40.9 17.9 36.9 17.7 36.9 18.1 40.9 18.1 59 15 59 15 31 16.7 31 29.9 49.4 31.9 53.2 32.1 53.2 31.7 49.4 31.7 31.4 34.8 31.4 34.8 59.4 33.1 59.4"></polygon>
            <polygon id="Shape" fill="#000000" points="62.4 34.3 53.8 34.3 53.8 59 50.5 59 50.5 34.3 41.9 34.3 41.9 31.4 62.4 31.4 62.4 34.3"></polygon>
            <polygon id="Shape" fill="#000000" points="70.4 31.4 85.4 31.4 85.4 34.3 73.7 34.3 73.7 43.3 84.5 43.3 84.5 46.2 73.7 46.2 73.7 56 85.7 56 85.7 58.9 70.5 58.9"></polygon>
            <path d="M95.4,31.6 C96.4,31.4 97.5,31.3 98.9,31.2 C100.2,31.1 101.4,31 102.5,31 C103.7,31 104.8,31.1 106,31.4 C107,31.6 108,32.1 108.9,32.7 C109.7,33.3 110.4,34.1 110.9,35.1 C112.2,38 111.8,41.4 109.9,43.9 C108.7,45.2 107.1,46.2 105.4,46.6 L107.3,48.1 L114.2,59 L110.4,59 L102.8,47.1 L98.9,46.5 L98.9,59 L95.6,59 L95.4,31.6 Z M102.5,33.9 L101.4,33.9 C101,33.9 100.7,33.9 100.3,33.9 L99.3,34 C99.1,34 98.8,34.1 98.6,34.1 L98.6,44.3 L101.7,44.3 C103.3,44.4 104.9,43.9 106.2,43 C107.4,42 108.1,40.4 108,38.8 C108,37.5 107.5,36.2 106.5,35.3 C105.4,34.3 104,33.8 102.5,33.9 Z" id="Shape" fill="#000000"></path>
            <polygon id="Shape" fill="#000000" points="128.1 50.3 129.1 54.5 129.1 54.5 130.1 50.2 136.8 31.3 140.1 31.3 129.6 59.3 128.1 59.3 117.5 31.3 121.1 31.3"></polygon>
            <polygon id="Shape" fill="#000000" points="148 31.4 151.3 31.4 151.3 59 148 59"></polygon>
            <polygon id="Shape" fill="#000000" points="162.7 31.4 177.7 31.4 177.7 34.3 166 34.3 166 43.3 176.8 43.3 176.8 46.2 166 46.2 166 56 177.9 56 177.9 58.9 162.7 58.9"></polygon>
            <polygon id="Shape" fill="#000000" points="193.2 49.8 193.8 54.4 193.8 54.4 194.5 49.7 200.2 31.3 201.8 31.3 207.5 49.8 208.2 54.4 208.2 54.4 208.9 49.7 213.6 31.3 216.8 31.3 209.1 59.3 207.3 59.3 201.7 40.8 201 36.6 200.8 36.6 200.1 40.8 194.5 59.3 192.7 59.3 184.8 31.3 188.3 31.3"></polygon>
            <path d="M225.1,31.4 L237.2,31.4 L237.2,32.9 C236.7,33.2 236.3,33.4 235.8,33.6 C235.3,33.8 234.8,33.9 234.2,34 L234.2,54.2 C234.3,56 233.9,57.8 233.2,59.5 C232.7,60.7 231.9,61.8 230.9,62.8 C230.1,63.5 229.2,64.1 228.2,64.6 C227.5,64.9 226.7,65.2 226,65.4 L225.2,64.4 C225.6,64 226,63.6 226.3,63.2 C226.7,62.6 227.1,62 227.3,61.3 C227.6,60.4 227.8,59.5 228,58.5 C228.2,57.2 228.3,55.8 228.3,54.5 L228.3,34.1 C227.7,34 227.1,33.8 226.6,33.6 C226.1,33.4 225.6,33.2 225.1,32.9 L225.1,31.4 Z" id="Shape" fill="#212683"></path>
            <path d="M248.5,55.7 C248.9,56 249.3,56.3 249.7,56.5 C250.4,56.8 251.1,56.9 251.8,56.9 C253.1,56.9 254.4,56.6 255.4,55.8 C256.4,55.1 256.9,53.9 256.9,52.7 C256.9,51.8 256.6,50.9 256,50.3 C255.3,49.6 254.5,49 253.7,48.5 C252.8,47.9 251.8,47.4 250.7,46.9 C249.6,46.4 248.6,45.7 247.7,45 C246.8,44.3 246,43.4 245.4,42.4 C244.7,41.3 244.4,39.9 244.5,38.6 C244.5,37.4 244.7,36.3 245.2,35.3 C245.7,34.4 246.4,33.6 247.2,33 C248.1,32.4 249.1,31.9 250.1,31.6 C251.3,31.3 252.5,31.1 253.8,31.1 C255.3,31.1 256.8,31.2 258.3,31.4 C259.6,31.6 260.8,31.9 262,32.4 C262,32.9 262,33.5 261.9,34.2 C261.8,34.9 261.7,35.6 261.6,36.2 C261.5,36.8 261.4,37.5 261.3,38.1 C261.2,38.7 261.1,39.2 261,39.6 L259.4,39.6 L257.6,34.2 C257.2,34 256.7,33.9 256.2,33.8 C255.6,33.7 254.9,33.6 254.3,33.6 C253.3,33.6 252.3,33.9 251.5,34.5 C250.7,35.1 250.3,36 250.3,37 C250.3,37.9 250.6,38.8 251.3,39.5 C252,40.2 252.8,40.9 253.7,41.4 C254.6,42 255.7,42.6 256.8,43.1 C257.9,43.7 258.9,44.3 259.9,45.1 C260.8,45.8 261.6,46.7 262.3,47.7 C263,48.8 263.3,50.1 263.3,51.4 C263.4,53.7 262.4,56 260.6,57.5 C258.8,58.9 256.2,59.7 252.8,59.7 C252,59.7 251.1,59.6 250.3,59.5 C249.5,59.4 248.7,59.3 247.9,59.1 C247.2,58.9 246.6,58.7 245.9,58.5 C245.4,58.4 245,58.1 244.6,57.8 C244.6,57.1 244.7,56.5 244.8,55.8 C244.9,55.1 245,54.4 245.1,53.7 C245.2,53 245.3,52.3 245.5,51.7 C245.6,51.1 245.8,50.5 245.9,50 L247.3,50 L248.5,55.7 Z" id="Shape" fill="#212683"></path>
            <g transform="translate(271.000000, 0.000000)" fill="#212683">
                <path d="M25,12.7 C24.2,12.7 23.5,13.3 23.6,14.1 C23.6,14.9 24.2,15.5 25,15.5 C25.8,15.5 26.4,14.9 26.4,14.1 C26.5,13.4 25.8,12.7 25,12.7 Z" id="Shape"></path>
                <path d="M40.8,11 C39,11 37.6,12.4 37.6,14.2 C37.6,15.9 39,17.4 40.8,17.4 C42.5,17.4 44,16 44,14.2 C44,12.5 42.6,11 40.8,11 Z" id="Shape"></path>
                <circle id="Oval" cx="32" cy="14.2" r="2.3"></circle>
                <path d="M33.1,34.2 C32.8,35.1 32.2,36 31.4,36.6 C30.2,37.6 28.7,38.2 26.9,38.2 L19.1,38.2 C18.9,38.2 18.6,38.3 18.5,38.4 L11,43.1 L11,39.4 C11,38.8 10.5,38.2 9.8,38.2 C8.8,38.2 7.5,38 6.4,37.6 C5.4,37.3 4.5,36.8 4,36.3 C3.5,35.8 3.1,35.2 2.8,34.5 C2.6,33.9 2.4,33.2 2.4,32.4 L2.4,21.2 C2.4,19.6 3.1,18.1 4.3,17.1 C5.5,16 7.1,15.4 8.9,15.4 C9.5,15.4 10.2,15.4 10.8,15.4 L13.7,15.4 L13.7,13.2 L10.8,13.2 C10.2,13.2 9.5,13.2 8.9,13.2 C6.5,13.2 4.3,14.1 2.7,15.6 C1.1,17 0.1,19.1 0.1,21.4 L0.1,32.6 C0.1,33.6 0.3,34.6 0.7,35.5 C1.1,36.4 1.7,37.3 2.4,38 C3.2,38.8 4.4,39.4 5.7,39.9 C6.7,40.2 7.7,40.5 8.7,40.6 L8.7,45.3 C8.7,45.9 9.2,46.5 9.9,46.5 C10.2,46.5 10.4,46.4 10.6,46.3 L19.6,40.7 L27.1,40.7 C29.4,40.7 31.5,39.8 33.1,38.5 C34.7,37.2 35.7,35.3 35.9,33.1 L33.7,31.8 C33.5,32.6 33.4,33.4 33.1,34.2 Z" id="Shape"></path>
                <path d="M7.6,21.4 C7.6,22 8.1,22.6 8.8,22.6 L14.1,22.6 C13.9,21.8 13.7,21 13.7,20.3 L8.8,20.3 C8.1,20.3 7.6,20.8 7.6,21.4 Z" id="Shape"></path>
                <path d="M7.6,32.1 C7.6,32.7 8.1,33.3 8.8,33.3 L27,33.3 C27.6,33.3 28.2,32.8 28.2,32.1 C28.2,31.5 27.7,30.9 27,30.9 L8.8,30.9 C8.2,30.9 7.6,31.4 7.6,32.1 Z" id="Shape"></path>
                <path d="M15.4,25.6 L8.8,25.6 C8.2,25.6 7.6,26.1 7.6,26.8 C7.6,27.4 8.1,28 8.8,28 L17.9,28 C16.9,27.2 16.1,26.5 15.4,25.6 Z" id="Shape"></path>
                <path d="M49,2.8 C47.3,1.3 45.1,0.4 42.8,0.4 L24.6,0.4 C22.2,0.4 20,1.3 18.4,2.8 C16.8,4.2 15.8,6.3 15.8,8.6 L15.8,19.8 C15.8,21 16.1,22.1 16.6,23.2 C16.7,23.4 16.8,23.6 16.8,23.7 C17.2,24.4 17.8,25.1 18.4,25.6 C19.9,26.9 22,27.9 24.5,27.9 L31.5,27.9 L32,27.9 L41,33.5 C41.2,33.7 41.5,33.7 41.7,33.7 C42.3,33.7 42.9,33.2 42.9,32.5 L42.9,27.8 C43.9,27.7 45,27.5 46,27.1 C47.3,26.6 48.5,26 49.3,25.2 C50.1,24.4 50.6,23.6 51,22.7 C51.3,21.8 51.6,20.8 51.6,19.7 L51.6,8.5 C51.6,6.3 50.7,4.3 49,2.8 Z M49.2,19.7 C49.2,20.5 49.1,21.1 48.8,21.8 C48.5,22.5 48.1,23.1 47.6,23.6 C47.1,24.1 46.2,24.6 45.2,24.9 C44.1,25.3 42.8,25.5 41.8,25.5 C41.2,25.5 40.6,26 40.6,26.7 L40.6,30.4 L33.1,25.7 C32.9,25.6 32.7,25.5 32.5,25.5 L24.3,25.5 C22.7,25.4 21.2,24.8 20,23.8 C18.8,22.8 18.1,21.3 18.1,19.7 L18.1,8.5 C18.1,6.9 18.8,5.4 20,4.4 C21.3,3.2 23,2.7 24.7,2.7 L42.8,2.7 C44.6,2.7 46.2,3.3 47.4,4.4 C48.6,5.4 49.3,6.9 49.3,8.5 L49.3,19.7 L49.2,19.7 Z" id="Shape"></path>
            </g>
        </g>
    </g>
</svg>